#N canvas 313 66 864 751 12;
#X obj 110 140 hsl 162 19 0 127 0 0 empty empty empty -2 -10 0 12 #fcfcfc #000000 #000000 0 1;
#X obj 91 317 mtof;
#X floatatom 110 166 10 0 0 0 - - - 0;
#X obj 230 359 hsl 162 19 0 127 0 0 empty empty empty -2 -10 0 12 #fcfcfc #000000 #000000 0 1;
#X obj 227 383 / 127;
#X obj 227 407 * 2000;
#X obj 227 431 + 1;
#X obj 92 560 pack 0 10;
#X text 228 324 transition time;
#X floatatom 277 435 5 0 0 0 - - - 0;
#X obj 92 612 list prepend \$1;
#X obj 92 584 list prepend f;
#X obj 92 678 s send-mess;
#X obj 114 196 hsl 162 19 0 127 0 0 empty empty empty -2 -10 0 12 #fcfcfc #000000 #000000 0 1;
#X floatatom 113 223 10 0 0 0 - - - 0;
#X obj 577 363 hsl 162 19 0 127 0 0 empty empty empty -2 -10 0 12 #fcfcfc #000000 #000000 0 1;
#X obj 574 387 / 127;
#X obj 574 411 * 2000;
#X obj 574 435 + 1;
#X obj 439 564 pack 0 10;
#X text 575 328 transition time;
#X floatatom 624 439 5 0 0 0 - - - 0;
#X obj 439 616 list prepend \$1;
#X obj 438 321 / 127;
#X obj 439 588 list prepend a;
#X obj 438 345 pow 2;
#X obj 438 369 clip 0 1;
#X obj 91 376 clip 0 20000;
#X text 187 163 frequency;
#X text 194 221 amplitude;
#X connect 0 0 1 0;
#X connect 1 0 2 0;
#X connect 2 0 27 0;
#X connect 3 0 4 0;
#X connect 4 0 5 0;
#X connect 5 0 6 0;
#X connect 6 0 7 1;
#X connect 6 0 9 0;
#X connect 7 0 11 0;
#X connect 10 0 12 0;
#X connect 11 0 10 0;
#X connect 13 0 23 0;
#X connect 15 0 16 0;
#X connect 16 0 17 0;
#X connect 17 0 18 0;
#X connect 18 0 19 1;
#X connect 18 0 21 0;
#X connect 19 0 24 0;
#X connect 22 0 12 0;
#X connect 23 0 25 0;
#X connect 24 0 22 0;
#X connect 25 0 26 0;
#X connect 26 0 19 0;
#X connect 26 0 14 0;
#X connect 27 0 7 0;
#X coords 0 -1 1 1 200 180 1 100 100;
