#N canvas 126 147 1071 662 12;
#N canvas 538 198 974 636 udp-out 1;
#X obj 78 528 netsend -u;
#X msg 76 362 connect localhost 50001;
#X obj 412 537 netsend -u;
#X msg 410 371 connect localhost 50002;
#X obj 634 543 netsend -u;
#X msg 632 377 connect localhost 50003;
#X obj 407 199 r send-mess;
#X obj 75 259 loadbang;
#X obj 159 390 route f a;
#X msg 104 451 send f-1 \$1 \$2;
#X msg 175 427 send a-1 \$1 \$2;
#X obj 407 223 route 1 2 3 4 5 6;
#X obj 271 391 route f a;
#X msg 216 452 send f-2 \$1 \$2;
#X msg 287 428 send a-2 \$1 \$2;
#X obj 475 410 route f a;
#X msg 420 471 send f-1 \$1 \$2;
#X msg 491 447 send a-1 \$1 \$2;
#X obj 587 411 route f a;
#X msg 532 472 send f-2 \$1 \$2;
#X msg 603 448 send a-2 \$1 \$2;
#X obj 740 411 route f a;
#X msg 685 472 send f-1 \$1 \$2;
#X msg 756 448 send a-1 \$1 \$2;
#X obj 852 412 route f a;
#X msg 797 473 send f-2 \$1 \$2;
#X msg 868 449 send a-2 \$1 \$2;
#X connect 1 0 0 0;
#X connect 3 0 2 0;
#X connect 5 0 4 0;
#X connect 6 0 11 0;
#X connect 7 0 1 0;
#X connect 7 0 5 0;
#X connect 7 0 3 0;
#X connect 8 0 9 0;
#X connect 8 1 10 0;
#X connect 9 0 0 0;
#X connect 10 0 0 0;
#X connect 11 0 8 0;
#X connect 11 1 12 0;
#X connect 11 2 15 0;
#X connect 11 3 18 0;
#X connect 11 4 21 0;
#X connect 11 5 24 0;
#X connect 12 0 13 0;
#X connect 12 1 14 0;
#X connect 13 0 0 0;
#X connect 14 0 0 0;
#X connect 15 0 16 0;
#X connect 15 1 17 0;
#X connect 16 0 2 0;
#X connect 17 0 2 0;
#X connect 18 0 19 0;
#X connect 18 1 20 0;
#X connect 19 0 2 0;
#X connect 20 0 2 0;
#X connect 21 0 22 0;
#X connect 21 1 23 0;
#X connect 22 0 4 0;
#X connect 23 0 4 0;
#X connect 24 0 25 0;
#X connect 24 1 26 0;
#X connect 25 0 4 0;
#X connect 26 0 4 0;
#X restore 56 542 pd udp-out;
#X obj 133 60 control-panel 1;
#X obj 357 62 control-panel 2;
#X obj 613 55 control-panel 3;
#X obj 837 57 control-panel 4;
#X obj 135 261 control-panel 5;
#X obj 359 263 control-panel 6;
