#N canvas 451 103 798 769 12;
#X obj 260 96 loadbang;
#X msg 260 127 \; pd dsp 1 \;;
#X obj 46 169 route f-1 a-1 f-2 a-2;
#X obj 46 230 s freq-1-control;
#X obj 67 201 s amp-1-control;
#X obj 174 229 s freq-2-control;
#X obj 195 200 s amp-2-control;
#X obj 87 467 line~;
#X obj 87 438 pack 0 10;
#X obj 112 529 osc~;
#X obj 112 553 *~ 0.5;
#X obj 112 577 *~, f 19;
#X obj 81 337 unpack;
#X obj 113 657 dac~ 1 2;
#X obj 151 368 max 0;
#X obj 89 403 clip 1 19000;
#X obj 289 507 line~;
#X obj 289 478 pack 0 10;
#X obj 283 377 unpack;
#X obj 349 411 max 0;
#X obj 283 443 clip 0 1;
#X obj 437 472 line~;
#X obj 437 443 pack 0 10;
#X obj 462 534 osc~;
#X obj 462 558 *~ 0.5;
#X obj 462 582 *~, f 19;
#X obj 431 342 unpack;
#X obj 501 373 max 0;
#X obj 439 408 clip 1 19000;
#X obj 639 512 line~;
#X obj 639 483 pack 0 10;
#X obj 633 382 unpack;
#X obj 699 416 max 0;
#X obj 633 448 clip 0 1;
#X obj 82 293 r freq-1-control;
#X obj 283 348 r amp-1-control;
#X obj 431 313 r freq-2-control;
#X obj 633 353 r amp-2-control;
#X obj 91 124 print osc3;
#X obj 47 77 netreceive 50003 1;
#X connect 0 0 1 0;
#X connect 2 0 3 0;
#X connect 2 1 4 0;
#X connect 2 2 5 0;
#X connect 2 3 6 0;
#X connect 7 0 9 0;
#X connect 8 0 7 0;
#X connect 9 0 10 0;
#X connect 10 0 11 0;
#X connect 11 0 13 0;
#X connect 12 0 15 0;
#X connect 12 1 14 0;
#X connect 14 0 8 1;
#X connect 15 0 8 0;
#X connect 16 0 11 1;
#X connect 17 0 16 0;
#X connect 18 0 20 0;
#X connect 18 1 19 0;
#X connect 19 0 17 1;
#X connect 20 0 17 0;
#X connect 21 0 23 0;
#X connect 22 0 21 0;
#X connect 23 0 24 0;
#X connect 24 0 25 0;
#X connect 25 0 13 1;
#X connect 26 0 28 0;
#X connect 26 1 27 0;
#X connect 27 0 22 1;
#X connect 28 0 22 0;
#X connect 29 0 25 1;
#X connect 30 0 29 0;
#X connect 31 0 33 0;
#X connect 31 1 32 0;
#X connect 32 0 30 1;
#X connect 33 0 30 0;
#X connect 34 0 12 0;
#X connect 35 0 18 0;
#X connect 36 0 26 0;
#X connect 37 0 31 0;
#X connect 39 0 2 0;
#X connect 39 0 38 0;
